<?xml version="1.0" encoding="UTF-8"?>

<svg xmlns="http://www.w3.org/2000/svg" width="200" height="200" viewBox="0 0 200 200">
  <g fill="#1A1814" opacity="0.06">
    <circle cx="11" cy="13" r="0.9"></circle>
    <circle cx="37" cy="29" r="0.7"></circle>
    <circle cx="63" cy="11" r="0.8"></circle>
    <circle cx="89" cy="41" r="0.6"></circle>
    <circle cx="119" cy="17" r="0.9"></circle>
    <circle cx="151" cy="33" r="0.7"></circle>
    <circle cx="177" cy="9" r="0.8"></circle>
    <circle cx="23" cy="63" r="0.6"></circle>
    <circle cx="51" cy="79" r="0.9"></circle>
    <circle cx="83" cy="71" r="0.7"></circle>
    <circle cx="113" cy="89" r="0.8"></circle>
    <circle cx="143" cy="69" r="0.6"></circle>
    <circle cx="171" cy="83" r="0.9"></circle>
    <circle cx="7" cy="111" r="0.7"></circle>
    <circle cx="41" cy="123" r="0.8"></circle>
    <circle cx="73" cy="107" r="0.6"></circle>
    <circle cx="101" cy="131" r="0.9"></circle>
    <circle cx="135" cy="115" r="0.7"></circle>
    <circle cx="163" cy="127" r="0.8"></circle>
    <circle cx="193" cy="113" r="0.6"></circle>
    <circle cx="19" cy="157" r="0.9"></circle>
    <circle cx="47" cy="173" r="0.7"></circle>
    <circle cx="79" cy="161" r="0.8"></circle>
    <circle cx="109" cy="179" r="0.6"></circle>
    <circle cx="141" cy="155" r="0.9"></circle>
    <circle cx="169" cy="187" r="0.7"></circle>
  </g>
</svg>